<svg width="24" height="24" viewBox="0 0 24 24" fill="none" xmlns="http://www.w3.org/2000/svg">
<path fill-rule="evenodd" clip-rule="evenodd" d="M12.0001 3C8.1519 3 5.03236 5.9305 5.03236 9.54545V14.1818C5.03236 14.3373 4.87082 14.6706 4.36458 15.0273C4.18429 15.1543 3.9949 15.2588 3.81083 15.3399C3.38657 15.5268 3 15.9118 3 16.3636C3 16.8155 3.37776 17.1818 3.84375 17.1818H20.1562C20.6222 17.1818 21 16.8155 21 16.3636C21 15.9118 20.6135 15.5404 20.1786 15.3781C19.9851 15.3058 19.7906 15.2106 19.6123 15.0934C19.1598 14.7958 18.9678 14.4684 18.9678 14.1818V9.5457C18.9678 5.93079 15.8483 3 12.0001 3ZM17.6739 15.5455H6.25656C6.55921 15.158 6.77428 14.6969 6.77428 14.1818V9.54545C6.77428 6.83424 9.11394 4.63636 12.0001 4.63636C14.8861 4.63636 17.2258 6.83444 17.2258 9.5457V14.1818C17.2258 14.7062 17.4044 15.1625 17.6739 15.5455Z" fill="white"/>
<path d="M12 21C13.2426 21 14.25 20.2958 14.25 19.0908C14.25 18.5455 13.2426 18.5455 12 18.5455C10.7574 18.5455 9.75 18.5456 9.75 19.0909C9.75 20.2959 10.7574 21 12 21Z" fill="white"/>
<circle cx="17.0853" cy="6.00522" r="3.00522" fill="#FD405E"/>
</svg>
